<svg width="20" height="19" viewBox="0 0 20 19" fill="none" xmlns="http://www.w3.org/2000/svg">
<path d="M19.5038 11.141C19.2767 10.2927 18.8541 9.50927 18.2698 8.85357C17.6856 8.19787 16.9559 7.68809 16.1392 7.36504C15.3225 7.042 14.4416 6.91468 13.5669 6.99326C12.6921 7.07185 11.848 7.35416 11.102 7.81759L12.6385 1.68259C12.6766 1.53017 12.6659 1.36962 12.6079 1.22361C12.5499 1.07761 12.4474 0.95351 12.3151 0.868843C11.6772 0.466051 10.9648 0.195689 10.2203 0.0738467C9.47578 -0.0479959 8.71437 -0.01883 7.98136 0.159609C7.24835 0.338049 6.55872 0.662115 5.95352 1.11252C5.34831 1.56293 4.83989 2.13048 4.45852 2.7814C4.07714 3.43232 3.83059 4.1533 3.73355 4.90145C3.63651 5.64959 3.69095 6.40962 3.89364 7.1363C4.09634 7.86297 4.44313 8.54145 4.9134 9.13136C5.38367 9.72127 5.96779 10.2106 6.63102 10.5701L0.549459 12.3073C0.398372 12.3503 0.26461 12.4397 0.167049 12.5628C0.0694886 12.686 0.0130539 12.8366 0.00570871 12.9935C-0.0520121 14.2741 0.329367 15.5359 1.08669 16.5701C1.84402 17.6043 2.93186 18.3489 4.17008 18.6804C4.64767 18.8086 5.13996 18.8739 5.63446 18.8745C6.38798 18.8725 7.13344 18.7193 7.82668 18.424C8.51992 18.1286 9.14685 17.6972 9.67032 17.1552C10.1938 16.6132 10.6032 15.9716 10.8742 15.2685C11.1452 14.5654 11.2724 13.8151 11.2482 13.062L15.7932 17.4607C15.9062 17.5701 16.0508 17.6411 16.2064 17.6638C16.362 17.6866 16.5208 17.6598 16.6604 17.5873C17.7976 16.9972 18.6993 16.0367 19.2164 14.8645C19.7334 13.6923 19.8348 12.3787 19.5038 11.141ZM9.88883 12.3457C9.52076 12.391 9.14753 12.3261 8.81635 12.1592C8.48517 11.9923 8.2109 11.731 8.02824 11.4083C7.84558 11.0855 7.76273 10.7159 7.79016 10.346C7.81759 9.97622 7.95407 9.62283 8.18234 9.33057C8.41062 9.03831 8.72044 8.8203 9.07261 8.70412C9.42479 8.58794 9.80351 8.5788 10.1609 8.67787C10.5182 8.77693 10.8382 8.97974 11.0803 9.26065C11.3224 9.54156 11.4758 9.88796 11.521 10.256C11.5817 10.7496 11.4438 11.247 11.1377 11.6389C10.8316 12.0308 10.3824 12.285 9.88883 12.3457Z" fill="white"/>
</svg>
