<svg width="20" height="20" viewBox="0 0 20 20" fill="none" xmlns="http://www.w3.org/2000/svg">
<path d="M18.2034 10.5469C18.0141 9.83992 17.6619 9.18708 17.1751 8.64067C16.6882 8.09425 16.0801 7.66943 15.3995 7.40023C14.719 7.13103 13.9848 7.02493 13.2559 7.09041C12.527 7.1559 11.8235 7.39116 11.2018 7.77736L12.4823 2.66486C12.5141 2.53784 12.5051 2.40405 12.4568 2.28237C12.4084 2.1607 12.3231 2.05729 12.2128 1.98673C11.6812 1.65107 11.0875 1.42577 10.4671 1.32423C9.84668 1.2227 9.21217 1.247 8.60133 1.3957C7.99049 1.5444 7.4158 1.81446 6.91146 2.1898C6.40712 2.56514 5.98344 3.0381 5.66562 3.58053C5.34781 4.12296 5.14235 4.72378 5.06149 5.34723C4.98062 5.97069 5.02599 6.60404 5.1949 7.20961C5.36381 7.81517 5.65281 8.38057 6.0447 8.87216C6.43659 9.36375 6.92336 9.77149 7.47605 10.0711L2.40808 11.5188C2.28217 11.5546 2.1707 11.6291 2.0894 11.7317C2.0081 11.8343 1.96107 11.9599 1.95495 12.0906C1.90685 13.1578 2.22467 14.2093 2.85577 15.0711C3.48688 15.933 4.39341 16.5534 5.42527 16.8297C5.82325 16.9366 6.2335 16.9909 6.64558 16.9914C7.27351 16.9898 7.89473 16.8621 8.47243 16.616C9.05013 16.3699 9.57257 16.0104 10.0088 15.5587C10.445 15.107 10.7862 14.5724 11.012 13.9865C11.2379 13.4006 11.3439 12.7753 11.3237 12.1477L15.1112 15.8133C15.2054 15.9044 15.3258 15.9636 15.4555 15.9826C15.5852 16.0015 15.7176 15.9792 15.8339 15.9188C16.7815 15.4271 17.533 14.6266 17.9638 13.6498C18.3947 12.6729 18.4792 11.5783 18.2034 10.5469ZM10.1909 11.5508C9.88416 11.5885 9.57314 11.5344 9.29715 11.3954C9.02117 11.2563 8.79262 11.0385 8.6404 10.7696C8.48818 10.5006 8.41913 10.1926 8.44199 9.8844C8.46485 9.57621 8.57859 9.28172 8.76882 9.03817C8.95905 8.79462 9.21722 8.61295 9.5107 8.51613C9.80418 8.41931 10.1198 8.4117 10.4176 8.49425C10.7154 8.5768 10.982 8.74581 11.1838 8.9799C11.3855 9.21399 11.5134 9.50266 11.551 9.80939C11.6016 10.2207 11.4867 10.6352 11.2316 10.9618C10.9765 11.2884 10.6022 11.5002 10.1909 11.5508Z" fill="#222222"/>
</svg>
