<svg width="24" height="24" viewBox="0 0 24 24" fill="none" xmlns="http://www.w3.org/2000/svg">
<path d="M19.8604 12.6385L14.2551 18.3076C14.1178 18.4465 13.9543 18.5568 13.7741 18.6322C13.5938 18.7075 13.4004 18.7463 13.2051 18.7463H7.06167L4.28104 21.5307C4.21136 21.6004 4.12863 21.6556 4.03759 21.6934C3.94654 21.7311 3.84896 21.7505 3.75042 21.7505C3.65187 21.7505 3.55429 21.7311 3.46324 21.6934C3.3722 21.6556 3.28947 21.6004 3.21979 21.5307C3.15011 21.461 3.09483 21.3783 3.05712 21.2872C3.01941 21.1962 3 21.0986 3 21.0001C3 20.9015 3.01941 20.8039 3.05712 20.7129C3.09483 20.6218 3.15011 20.5391 3.21979 20.4694L5.3376 18.3526L11.691 12.0001H19.5942C19.6681 12.0002 19.7403 12.0221 19.8018 12.0632C19.8632 12.1042 19.9112 12.1625 19.9396 12.2307C19.9681 12.2989 19.9757 12.374 19.9617 12.4466C19.9476 12.5191 19.9123 12.5859 19.8604 12.6385ZM20.316 2.866C19.1653 1.91896 17.7032 1.43412 16.2146 1.50586C14.7259 1.57761 13.3173 2.20081 12.2629 3.25412L11.3629 4.14287C11.292 4.21234 11.2516 4.30707 11.2504 4.40631V10.3126L16.4067 5.15631C16.5485 5.02159 16.7373 4.9476 16.9328 4.9501C17.1284 4.95261 17.3153 5.03141 17.4536 5.16971C17.5919 5.30801 17.6707 5.49487 17.6732 5.69044C17.6757 5.88601 17.6017 6.07482 17.467 6.21662L13.192 10.5001H21.4776C21.5465 10.5002 21.614 10.4814 21.6729 10.4457C21.7318 10.4099 21.7797 10.3587 21.8114 10.2976C22.454 9.07563 22.6562 7.66964 22.3838 6.31615C22.1115 4.96266 21.3813 3.74428 20.316 2.866ZM5.89073 15.6779L9.75042 11.8182V6.63381C9.75029 6.5599 9.72833 6.48768 9.68729 6.42621C9.64626 6.36475 9.58797 6.31678 9.51976 6.28833C9.45154 6.25988 9.37645 6.25223 9.3039 6.26632C9.23135 6.28042 9.16458 6.31564 9.11198 6.36756L5.6901 9.75006C5.55038 9.88897 5.43958 10.0542 5.36411 10.2362C5.28864 10.4182 5.24999 10.6133 5.25042 10.8104V15.4126C5.25036 15.4868 5.27232 15.5593 5.31352 15.6211C5.35472 15.6828 5.41331 15.7309 5.48187 15.7593C5.55043 15.7877 5.62588 15.7951 5.69866 15.7806C5.77144 15.7661 5.83828 15.7304 5.89073 15.6779Z" fill="white"/>
</svg>
