<svg width="1168" height="528" viewBox="0 0 1168 528" fill="none" xmlns="http://www.w3.org/2000/svg">
<path d="M852.207 156.669C816.552 158.963 780.775 160.798 744.924 162.172V236.963C780.775 236.505 816.552 235.893 852.207 235.128V156.669Z" fill="#F5FAFF"/>
<path d="M744.924 87.8557C709.22 90.1348 673.443 91.724 637.641 92.4813V165.029C673.443 164.573 709.22 163.663 744.924 162.295V87.8557Z" fill="#F5F5F5"/>
<path d="M530.359 165.173C494.557 164.716 458.78 163.801 423.076 162.43V236.959C458.78 237.416 494.557 237.72 530.359 237.873V165.173Z" fill="#FAFAFA"/>
<path d="M315.793 157.048V78.7672C351.33 82.5561 387.344 85.4912 423.076 87.7683V162.486C387.344 161.12 351.33 159.321 315.793 157.048Z" fill="#F5FAFF"/>
<path d="M315.793 157.042C280.472 154.773 245.272 152.053 210.24 148.879V231.849C245.272 232.907 280.472 234.247 315.793 235.003V157.042Z" fill="#EFF8FF"/>
<path d="M1167.01 0H1063.31V46.741C1098.15 39.9007 1132.78 32.3055 1167.13 23.9555L1167.01 0Z" fill="#FDFDFD"/>
<path d="M104.687 46.741V0H0.865173V23.902C35.2225 32.2759 69.846 39.8888 104.687 46.741Z" fill="#FDFDFD"/>
<path d="M530.185 456.388C565.999 455.622 601.838 455.619 637.652 456.377" stroke="black" stroke-opacity="0.2" stroke-width="0.5" stroke-miterlimit="10"/>
<path d="M423.076 386.046C530.14 382.013 637.859 382.006 744.924 386.028" stroke="black" stroke-opacity="0.2" stroke-width="0.5" stroke-miterlimit="10"/>
<path d="M852.207 313.338C674.415 309.877 493.587 309.875 315.793 313.332" stroke="black" stroke-opacity="0.2" stroke-width="0.5" stroke-miterlimit="10"/>
<path d="M210.042 232.124C456.776 239.803 711.818 239.799 958.547 232.117" stroke="black" stroke-opacity="0.2" stroke-width="0.5" stroke-miterlimit="10"/>
<path d="M104.83 137.636C418.59 174.688 750.009 174.678 1063.76 137.605" stroke="black" stroke-opacity="0.2" stroke-width="0.5" stroke-miterlimit="10"/>
<path d="M0.865173 23.3705C378.877 116.275 789.123 116.275 1167.13 23.3705" stroke="black" stroke-opacity="0.2" stroke-width="0.5" stroke-miterlimit="10"/>
<path d="M1063.31 0V231.974" stroke="black" stroke-opacity="0.2" stroke-width="0.5" stroke-miterlimit="10"/>
<path d="M957.76 0V313.338" stroke="black" stroke-opacity="0.2" stroke-width="0.5" stroke-miterlimit="10"/>
<path d="M852.207 0C852.207 128.397 852.207 256.792 852.207 385.18" stroke="black" stroke-opacity="0.2" stroke-width="0.5" stroke-miterlimit="10"/>
<path d="M744.924 0C744.924 151.764 744.924 303.528 744.924 455.292" stroke="black" stroke-opacity="0.2" stroke-width="0.5" stroke-miterlimit="10"/>
<path d="M637.641 0V528" stroke="black" stroke-opacity="0.2" stroke-width="0.5" stroke-miterlimit="10"/>
<path d="M530.359 0V528" stroke="black" stroke-opacity="0.2" stroke-width="0.5" stroke-miterlimit="10"/>
<path d="M423.076 0V455.292" stroke="black" stroke-opacity="0.2" stroke-width="0.5" stroke-miterlimit="10"/>
<path d="M315.793 0C315.793 128.397 315.793 256.792 315.793 385.18" stroke="black" stroke-opacity="0.2" stroke-width="0.5" stroke-miterlimit="10"/>
<path d="M210.24 0V313.338" stroke="black" stroke-opacity="0.2" stroke-width="0.5" stroke-miterlimit="10"/>
<path d="M104.687 0V231.974" stroke="black" stroke-opacity="0.2" stroke-width="0.5" stroke-miterlimit="10"/>
<path d="M1.08148 0L1.08149 137.626" stroke="black" stroke-opacity="0.2" stroke-width="0.5" stroke-miterlimit="10"/>
<path d="M1167.35 0V137.626" stroke="black" stroke-opacity="0.2" stroke-width="0.5" stroke-miterlimit="10"/>
</svg>
