<svg width="22" height="19" viewBox="0 0 22 19" fill="none" xmlns="http://www.w3.org/2000/svg">
<path d="M16.272 7.34486L10.647 3.59486L15.8557 0.126112C15.979 0.0438829 16.1238 0 16.272 0C16.4201 0 16.565 0.0438829 16.6882 0.126112L20.9595 2.97049C21.0624 3.03895 21.1467 3.13177 21.2051 3.2407C21.2634 3.34963 21.294 3.47129 21.294 3.59486C21.294 3.71844 21.2634 3.8401 21.2051 3.94902C21.1467 4.05795 21.0624 4.15077 20.9595 4.21924L16.272 7.34486ZM5.43823 0.126112C5.31498 0.0438829 5.17014 0 5.02198 0C4.87382 0 4.72898 0.0438829 4.60573 0.126112L0.334481 2.97049C0.231606 3.03895 0.147241 3.13177 0.0888876 3.2407C0.0305341 3.34963 0 3.47129 0 3.59486C0 3.71844 0.0305341 3.8401 0.0888876 3.94902C0.147241 4.05795 0.231606 4.15077 0.334481 4.21924L5.02198 7.34486L10.647 3.59486L5.43823 0.126112ZM20.9595 10.4705L16.272 7.34486L10.647 11.0949L15.8557 14.5636C15.979 14.6458 16.1238 14.6897 16.272 14.6897C16.4201 14.6897 16.565 14.6458 16.6882 14.5636L20.9595 11.7192C21.0624 11.6508 21.1467 11.558 21.2051 11.449C21.2634 11.3401 21.294 11.2184 21.294 11.0949C21.294 10.9713 21.2634 10.8496 21.2051 10.7407C21.1467 10.6318 21.0624 10.5389 20.9595 10.4705ZM0.334481 10.4705C0.231606 10.5389 0.147241 10.6318 0.0888876 10.7407C0.0305341 10.8496 0 10.9713 0 11.0949C0 11.2184 0.0305341 11.3401 0.0888876 11.449C0.147241 11.558 0.231606 11.6508 0.334481 11.7192L4.60573 14.5636C4.72898 14.6458 4.87382 14.6897 5.02198 14.6897C5.17014 14.6897 5.31498 14.6458 5.43823 14.5636L10.647 11.0949L5.02198 7.34486L0.334481 10.4705ZM14.4542 15.4345L10.857 13.0364C10.7954 12.9953 10.7229 12.9734 10.6489 12.9734C10.5748 12.9734 10.5024 12.9953 10.4407 13.0364L6.84167 15.4345C6.79043 15.4688 6.74842 15.5152 6.71938 15.5696C6.69033 15.6239 6.67513 15.6846 6.67513 15.7463C6.67513 15.8079 6.69033 15.8686 6.71938 15.923C6.74842 15.9773 6.79043 16.0237 6.84167 16.058L10.2307 18.3136C10.354 18.3958 10.4988 18.4397 10.647 18.4397C10.7951 18.4397 10.94 18.3958 11.0632 18.3136L14.4523 16.0542C14.5028 16.0198 14.5441 15.9736 14.5726 15.9196C14.6011 15.8656 14.6161 15.8055 14.6161 15.7444C14.6161 15.6833 14.6011 15.6232 14.5726 15.5692C14.5441 15.5152 14.5028 15.469 14.4523 15.4345H14.4542Z" fill="white"/>
</svg>
