<svg width="21" height="21" viewBox="0 0 21 21" fill="none" xmlns="http://www.w3.org/2000/svg">
<path d="M21.001 13.501C20.9999 15.3701 20.301 17.1713 19.0411 18.5519C17.7813 19.9326 16.0514 20.793 14.1902 20.9648C12.3291 21.1365 10.4709 20.6072 8.97972 19.4805C7.48849 18.3537 6.4717 16.7108 6.12854 14.8735C7.32559 15.0962 8.55885 15.024 9.72178 14.6634C10.8847 14.3027 11.9423 13.6643 12.8033 12.8033C13.6643 11.9423 14.3027 10.8847 14.6634 9.72178C15.024 8.55885 15.0962 7.32559 14.8735 6.12854C16.5949 6.44895 18.1498 7.36149 19.2689 8.70801C20.3881 10.0545 21.0008 11.7502 21.001 13.501ZM13.501 6.00104C13.9615 6.00147 14.4209 6.04415 14.8735 6.12854C14.6237 4.78548 14.0118 3.53616 13.1039 2.51543C12.196 1.4947 11.0266 0.741331 9.72178 0.336643C8.41701 -0.0680442 7.02649 -0.108678 5.70031 0.219127C4.37413 0.546933 3.16267 1.23073 2.1967 2.1967C1.23073 3.16267 0.546933 4.37413 0.219127 5.70031C-0.108678 7.02649 -0.0680442 8.41701 0.336643 9.72178C0.741331 11.0266 1.4947 12.196 2.51543 13.1039C3.53616 14.0118 4.78548 14.6237 6.12854 14.8735C5.92704 13.791 5.96637 12.6774 6.24374 11.6118C6.52111 10.5462 7.02972 9.55472 7.73344 8.70782C8.43716 7.86092 9.31873 7.17936 10.3155 6.71155C11.3123 6.24375 12.3999 6.00117 13.501 6.00104Z" fill="white"/>
</svg>
